<svg xmlns="http://www.w3.org/2000/svg" viewBox="0 0 3947 704" width="595" height="170">
	<style>
		tspan { white-space:pre }
	</style>
	<g >
		<path fill="#bd0000" d="M85.37 426.97L0.09 426.97L0.09 0.57L255.93 0.57L255.93 85.85L85.37 85.85L85.37 171.13L255.93 171.13L255.93 256.41L85.37 256.41L85.37 426.97ZM440.14 426.97L354.86 426.97L354.86 0.57L610.7 0.57L610.7 85.85L440.14 85.85L440.14 171.13L610.7 171.13L610.7 256.41L440.14 256.41L440.14 426.97ZM610.7 171.13L610.7 85.85L695.98 85.85L695.98 171.13L610.7 171.13ZM525.42 341.69L525.42 256.41L610.7 256.41L610.7 341.69L525.42 341.69ZM610.7 426.97L610.7 341.69L695.98 341.69L695.98 426.97L610.7 426.97ZM882.23 426.97L796.95 426.97L796.95 85.85L882.23 85.85L882.23 171.13L1052.79 171.13L1052.79 85.85L1138.08 85.85L1138.08 426.97L1052.79 426.97L1052.79 256.41L882.23 256.41L882.23 426.97ZM1052.79 0.57L882.23 0.57L882.23 85.85L1052.79 85.85L1052.79 0.57ZM1320.23 426.97L1234.95 426.97L1234.95 0.57L1320.23 0.57L1320.23 426.97ZM1661.36 426.97L1576.08 426.97L1576.08 0.57L1661.36 0.57L1661.36 426.97ZM1490.8 171.13L1490.8 85.85L1576.08 85.85L1576.08 171.13L1490.8 171.13ZM1405.52 256.41L1405.52 171.13L1490.8 171.13L1490.8 256.41L1405.52 256.41ZM1320.23 171.13L1320.23 85.85L1405.52 85.85L1405.52 171.13L1320.23 171.13ZM2016.12 0.57L2016.12 85.85L1845.56 85.85L1845.56 171.13L2016.12 171.13L2016.12 256.41L1845.56 256.41L1845.56 341.69L2016.12 341.69L2016.12 426.97L1760.28 426.97L1760.28 0.57L2016.12 0.57ZM2200.33 341.69L2115.05 341.69L2115.05 0.57L2200.33 0.57L2200.33 341.69ZM2370.89 426.97L2370.89 341.69L2456.17 341.69L2456.17 426.97L2370.89 426.97ZM2200.33 426.97L2200.33 341.69L2285.61 341.69L2285.61 426.97L2200.33 426.97ZM2541.45 341.69L2456.17 341.69L2456.17 0.57L2541.45 0.57L2541.45 341.69ZM2370.89 341.69L2285.61 341.69L2285.61 85.85L2370.89 85.85L2370.89 341.69ZM2896.22 0.57L2896.22 85.85L2725.66 85.85L2725.66 0.57L2896.22 0.57ZM2725.66 85.85L2725.66 341.69L2640.38 341.69L2640.38 85.85L2725.66 85.85ZM2896.22 341.69L2896.22 426.97L2725.66 426.97L2725.66 341.69L2896.22 341.69ZM2725.66 426.97L2725.66 426.97ZM2981.5 85.85L2981.5 341.69L2896.22 341.69L2896.22 85.85L2981.5 85.85ZM3165.71 426.97L3080.43 426.97L3080.43 0.57L3336.27 0.57L3336.27 85.85L3165.71 85.85L3165.71 171.13L3336.27 171.13L3336.27 256.41L3165.71 256.41L3165.71 426.97ZM3336.27 171.13L3336.27 85.85L3421.55 85.85L3421.55 171.13L3336.27 171.13ZM3250.99 341.69L3250.99 256.41L3336.27 256.41L3336.27 341.69L3250.99 341.69ZM3336.27 426.97L3336.27 341.69L3421.55 341.69L3421.55 426.97L3336.27 426.97ZM3520.47 426.97L3520.47 341.69L3605.75 341.69L3605.75 426.97L3520.47 426.97ZM3605.75 341.69L3605.75 256.41L3691.03 256.41L3691.03 341.69L3605.75 341.69ZM3691.03 256.41L3691.03 171.13L3776.31 171.13L3776.31 256.41L3691.03 256.41ZM3776.31 171.13L3776.31 85.85L3861.6 85.85L3861.6 171.13L3776.31 171.13ZM3861.6 85.85L3861.6 0.57L3946.88 0.57L3946.88 85.85L3861.6 85.85ZM3605.75 171.13L3605.75 85.85L3691.03 85.85L3691.03 171.13L3605.75 171.13ZM3520.47 85.85L3520.47 0.57L3605.75 0.57L3605.75 85.85L3520.47 85.85ZM3776.31 341.69L3776.31 256.41L3861.6 256.41L3861.6 341.69L3776.31 341.69ZM3861.6 426.97L3861.6 341.69L3946.88 341.69L3946.88 426.97L3861.6 426.97Z" />
		<path fill="#bd0000" d="M3202.57 697.33L3202.57 661.69L3238.21 661.69L3238.21 697.33L3202.57 697.33Z" />
		<path fill="#bd0000" d="M3291.13 703.82L3291.13 533.38L3419.93 533.38L3419.93 703.82L3291.13 703.82ZM3366.09 631.91L3382.95 680.66L3413.63 680.66L3369.95 554.71L3338.87 554.71L3295.19 680.66L3325.67 680.66L3342.73 631.91L3366.09 631.91ZM3419.52 533.38L3527.19 533.38L3527.19 703.82L3419.52 703.82L3419.52 533.38ZM3520.89 630.08L3520.89 617.89L3471.93 617.89L3471.93 644.1L3487.78 644.1Q3484.93 647.96 3480.87 650.19Q3476.81 652.22 3471.93 652.22Q3467.67 652.22 3464.01 650.6Q3460.35 648.77 3457.51 645.72Q3454.87 642.68 3453.24 638.82Q3451.62 634.75 3451.62 630.08L3451.62 605.3Q3451.62 600.83 3453.24 596.77Q3454.87 592.7 3457.51 589.66Q3460.35 586.61 3464.01 584.98Q3467.67 583.15 3471.93 583.15Q3476.2 583.15 3479.85 584.98Q3483.71 586.61 3486.35 589.66Q3489.2 592.7 3490.82 596.77Q3492.45 600.83 3492.45 605.3L3520.89 605.3Q3520.89 595.14 3517.23 586Q3513.58 576.86 3506.87 569.75Q3499.76 562.43 3490.82 558.57Q3481.89 554.71 3472.13 554.71L3471.93 554.71Q3451.62 554.71 3437.19 569.75Q3430.49 576.86 3426.83 586Q3423.38 594.94 3423.18 604.89L3423.18 630.89Q3423.38 640.85 3427.04 649.79Q3430.69 658.52 3437.19 665.63Q3451.62 680.66 3471.93 680.66L3472.13 680.66Q3478.03 680.66 3483.51 679.04Q3489.2 677.21 3494.48 674.16L3494.48 680.66L3520.69 680.66L3520.69 633.33Q3520.69 632.32 3520.69 631.71Q3520.89 630.89 3520.89 630.08ZM3526.98 703.82L3526.98 533.38L3620.02 533.38L3620.02 703.82L3526.98 703.82ZM3562.94 583.15L3611.7 583.15L3611.7 554.71L3534.5 554.71L3534.5 680.66L3611.7 680.66L3611.7 652.22L3562.94 652.22L3562.94 631.91L3598.9 631.91L3598.9 603.47L3562.94 603.47L3562.94 583.15ZM3618.4 703.82L3618.4 533.38L3727.9 533.38L3727.9 703.82L3618.4 703.82ZM3690.72 680.66L3719.57 680.66L3719.57 554.71L3691.13 554.71L3691.13 625L3655.78 554.71L3626.73 554.71L3626.73 680.66L3655.17 680.66L3655.17 610.38L3690.72 680.66ZM3725.86 533.38L3836.78 533.38L3836.78 703.82L3725.86 703.82L3725.86 533.38ZM3781.93 652.22Q3777.67 652.22 3774.01 650.6Q3770.35 648.77 3767.51 645.72Q3764.87 642.68 3763.24 638.82Q3761.62 634.75 3761.62 630.08L3761.62 605.3Q3761.62 600.83 3763.24 596.77Q3764.87 592.7 3767.51 589.66Q3770.35 586.61 3774.01 584.98Q3777.67 583.15 3781.93 583.15Q3786.2 583.15 3789.85 584.98Q3793.71 586.61 3796.36 589.66Q3799.2 592.7 3800.82 596.77Q3802.45 600.83 3802.45 605.3L3830.89 605.3Q3830.89 595.14 3827.23 586Q3823.58 576.86 3816.87 569.75Q3802.45 554.71 3782.14 554.71L3781.93 554.71Q3761.62 554.71 3747.19 569.75Q3740.49 576.86 3736.83 586Q3733.38 594.94 3733.18 604.89L3733.18 630.89Q3733.38 640.85 3737.04 649.79Q3740.69 658.52 3747.19 665.63Q3761.62 680.66 3781.93 680.66L3782.14 680.66Q3792.09 680.66 3800.82 676.8Q3809.76 672.95 3816.87 665.63Q3823.58 658.52 3827.23 649.38Q3830.89 640.24 3830.89 630.08L3802.45 630.08Q3802.45 634.75 3800.82 638.82Q3799.2 642.68 3796.36 645.72Q3793.71 648.77 3789.85 650.6Q3786.2 652.22 3781.93 652.22ZM3834.95 703.82L3834.95 533.38L3946.28 533.38L3946.28 703.82L3834.95 703.82ZM3904.63 680.66L3904.63 617.89L3938.56 554.71L3910.12 554.71L3890.41 591.28L3870.71 554.71L3842.27 554.71L3876.19 617.69L3876.19 680.66L3904.63 680.66Z" />
	</g>
</svg>